<svg xmlns="http://www.w3.org/2000/svg" viewBox="0 0 600 400" width="600" height="400" role="img"><defs>
<linearGradient id="bg" x1="0" y1="0" x2="1" y2="1"><stop offset="0" stop-color="#0e1230"/><stop offset="0.55" stop-color="#141a44"/><stop offset="1" stop-color="#0a0d24"/></linearGradient>
<radialGradient id="glow" cx="0.5" cy="0.5" r="0.5"><stop offset="0" stop-color="#8b5cf6" stop-opacity="0.5"/><stop offset="1" stop-color="#8b5cf6" stop-opacity="0"/></radialGradient>
<linearGradient id="gold" x1="0" y1="0" x2="1" y2="1"><stop offset="0" stop-color="#f4cd72"/><stop offset="1" stop-color="#c9922a"/></linearGradient>
<linearGradient id="vio" x1="0" y1="0" x2="1" y2="1"><stop offset="0" stop-color="#c7a3ff"/><stop offset="1" stop-color="#8b5cf6"/></linearGradient>
<linearGradient id="tile" x1="0" y1="0" x2="0" y2="1"><stop offset="0" stop-color="#ffffff" stop-opacity="0.10"/><stop offset="1" stop-color="#ffffff" stop-opacity="0.02"/></linearGradient>
</defs><rect width="600" height="400" fill="url(#bg)"/><g fill="#ffffff" opacity="0.05"><circle cx="40" cy="40" r="1.6"/><circle cx="80" cy="40" r="1.6"/><circle cx="120" cy="40" r="1.6"/><circle cx="160" cy="40" r="1.6"/><circle cx="200" cy="40" r="1.6"/><circle cx="240" cy="40" r="1.6"/><circle cx="280" cy="40" r="1.6"/><circle cx="320" cy="40" r="1.6"/><circle cx="360" cy="40" r="1.6"/><circle cx="400" cy="40" r="1.6"/><circle cx="440" cy="40" r="1.6"/><circle cx="480" cy="40" r="1.6"/><circle cx="520" cy="40" r="1.6"/><circle cx="560" cy="40" r="1.6"/><circle cx="40" cy="80" r="1.6"/><circle cx="80" cy="80" r="1.6"/><circle cx="120" cy="80" r="1.6"/><circle cx="160" cy="80" r="1.6"/><circle cx="200" cy="80" r="1.6"/><circle cx="240" cy="80" r="1.6"/><circle cx="280" cy="80" r="1.6"/><circle cx="320" cy="80" r="1.6"/><circle cx="360" cy="80" r="1.6"/><circle cx="400" cy="80" r="1.6"/><circle cx="440" cy="80" r="1.6"/><circle cx="480" cy="80" r="1.6"/><circle cx="520" cy="80" r="1.6"/><circle cx="560" cy="80" r="1.6"/><circle cx="40" cy="120" r="1.6"/><circle cx="80" cy="120" r="1.6"/><circle cx="120" cy="120" r="1.6"/><circle cx="160" cy="120" r="1.6"/><circle cx="200" cy="120" r="1.6"/><circle cx="240" cy="120" r="1.6"/><circle cx="280" cy="120" r="1.6"/><circle cx="320" cy="120" r="1.6"/><circle cx="360" cy="120" r="1.6"/><circle cx="400" cy="120" r="1.6"/><circle cx="440" cy="120" r="1.6"/><circle cx="480" cy="120" r="1.6"/><circle cx="520" cy="120" r="1.6"/><circle cx="560" cy="120" r="1.6"/><circle cx="40" cy="160" r="1.6"/><circle cx="80" cy="160" r="1.6"/><circle cx="120" cy="160" r="1.6"/><circle cx="160" cy="160" r="1.6"/><circle cx="200" cy="160" r="1.6"/><circle cx="240" cy="160" r="1.6"/><circle cx="280" cy="160" r="1.6"/><circle cx="320" cy="160" r="1.6"/><circle cx="360" cy="160" r="1.6"/><circle cx="400" cy="160" r="1.6"/><circle cx="440" cy="160" r="1.6"/><circle cx="480" cy="160" r="1.6"/><circle cx="520" cy="160" r="1.6"/><circle cx="560" cy="160" r="1.6"/><circle cx="40" cy="200" r="1.6"/><circle cx="80" cy="200" r="1.6"/><circle cx="120" cy="200" r="1.6"/><circle cx="160" cy="200" r="1.6"/><circle cx="200" cy="200" r="1.6"/><circle cx="240" cy="200" r="1.6"/><circle cx="280" cy="200" r="1.6"/><circle cx="320" cy="200" r="1.6"/><circle cx="360" cy="200" r="1.6"/><circle cx="400" cy="200" r="1.6"/><circle cx="440" cy="200" r="1.6"/><circle cx="480" cy="200" r="1.6"/><circle cx="520" cy="200" r="1.6"/><circle cx="560" cy="200" r="1.6"/><circle cx="40" cy="240" r="1.6"/><circle cx="80" cy="240" r="1.6"/><circle cx="120" cy="240" r="1.6"/><circle cx="160" cy="240" r="1.6"/><circle cx="200" cy="240" r="1.6"/><circle cx="240" cy="240" r="1.6"/><circle cx="280" cy="240" r="1.6"/><circle cx="320" cy="240" r="1.6"/><circle cx="360" cy="240" r="1.6"/><circle cx="400" cy="240" r="1.6"/><circle cx="440" cy="240" r="1.6"/><circle cx="480" cy="240" r="1.6"/><circle cx="520" cy="240" r="1.6"/><circle cx="560" cy="240" r="1.6"/><circle cx="40" cy="280" r="1.6"/><circle cx="80" cy="280" r="1.6"/><circle cx="120" cy="280" r="1.6"/><circle cx="160" cy="280" r="1.6"/><circle cx="200" cy="280" r="1.6"/><circle cx="240" cy="280" r="1.6"/><circle cx="280" cy="280" r="1.6"/><circle cx="320" cy="280" r="1.6"/><circle cx="360" cy="280" r="1.6"/><circle cx="400" cy="280" r="1.6"/><circle cx="440" cy="280" r="1.6"/><circle cx="480" cy="280" r="1.6"/><circle cx="520" cy="280" r="1.6"/><circle cx="560" cy="280" r="1.6"/><circle cx="40" cy="320" r="1.6"/><circle cx="80" cy="320" r="1.6"/><circle cx="120" cy="320" r="1.6"/><circle cx="160" cy="320" r="1.6"/><circle cx="200" cy="320" r="1.6"/><circle cx="240" cy="320" r="1.6"/><circle cx="280" cy="320" r="1.6"/><circle cx="320" cy="320" r="1.6"/><circle cx="360" cy="320" r="1.6"/><circle cx="400" cy="320" r="1.6"/><circle cx="440" cy="320" r="1.6"/><circle cx="480" cy="320" r="1.6"/><circle cx="520" cy="320" r="1.6"/><circle cx="560" cy="320" r="1.6"/><circle cx="40" cy="360" r="1.6"/><circle cx="80" cy="360" r="1.6"/><circle cx="120" cy="360" r="1.6"/><circle cx="160" cy="360" r="1.6"/><circle cx="200" cy="360" r="1.6"/><circle cx="240" cy="360" r="1.6"/><circle cx="280" cy="360" r="1.6"/><circle cx="320" cy="360" r="1.6"/><circle cx="360" cy="360" r="1.6"/><circle cx="400" cy="360" r="1.6"/><circle cx="440" cy="360" r="1.6"/><circle cx="480" cy="360" r="1.6"/><circle cx="520" cy="360" r="1.6"/><circle cx="560" cy="360" r="1.6"/></g><ellipse cx="300" cy="195" rx="230" ry="150" fill="url(#glow)"/><line x1="300.0" y1="192.0" x2="263.6" y2="129.0" stroke="url(#vio)" stroke-width="2.4" opacity="0.8"/><line x1="263.6" y1="129.0" x2="336.4" y2="129.0" stroke="url(#vio)" stroke-width="2.4" opacity="0.8"/><line x1="336.4" y1="129.0" x2="300.0" y2="192.0" stroke="url(#vio)" stroke-width="2.4" opacity="0.8"/><circle cx="300.0" cy="192.0" r="12" fill="url(#vio)"/><circle cx="263.6" cy="129.0" r="12" fill="url(#vio)"/><circle cx="336.4" cy="129.0" r="12" fill="url(#vio)"/><circle cx="300" cy="150" r="7" fill="url(#gold)"/><text x="300" y="252" text-anchor="middle" font-family="Pretendard, sans-serif" font-size="72" font-weight="800" fill="url(#vio)">3</text><text x="300" y="288" text-anchor="middle" font-family="Pretendard, sans-serif" font-size="15" font-weight="700" fill="#c7a3ff" letter-spacing="4">에이전트 엔지니어링</text></svg>