<svg xmlns="http://www.w3.org/2000/svg" viewBox="0 0 600 400" width="600" height="400" role="img">
<defs>
  <linearGradient id="bg" x1="0" y1="0" x2="1" y2="1"><stop offset="0" stop-color="#0e1230"/><stop offset="0.55" stop-color="#141a44"/><stop offset="1" stop-color="#0a0d24"/></linearGradient>
  <radialGradient id="glow" cx="0.5" cy="0.5" r="0.5"><stop offset="0" stop-color="#e8b64c" stop-opacity="0.55"/><stop offset="1" stop-color="#e8b64c" stop-opacity="0"/></radialGradient>
  <linearGradient id="gold" x1="0" y1="0" x2="1" y2="1"><stop offset="0" stop-color="#f4cd72"/><stop offset="1" stop-color="#c9922a"/></linearGradient>
  <linearGradient id="mint" x1="0" y1="0" x2="1" y2="1"><stop offset="0" stop-color="#5fe6dd"/><stop offset="1" stop-color="#12a594"/></linearGradient>
  <linearGradient id="tile" x1="0" y1="0" x2="0" y2="1"><stop offset="0" stop-color="#ffffff" stop-opacity="0.10"/><stop offset="1" stop-color="#ffffff" stop-opacity="0.02"/></linearGradient>
</defs>
<rect width="600" height="400" fill="url(#bg)"/>
<g fill="#ffffff" opacity="0.05"><circle cx="40" cy="40" r="1.6"/><circle cx="80" cy="40" r="1.6"/><circle cx="120" cy="40" r="1.6"/><circle cx="160" cy="40" r="1.6"/><circle cx="200" cy="40" r="1.6"/><circle cx="240" cy="40" r="1.6"/><circle cx="280" cy="40" r="1.6"/><circle cx="320" cy="40" r="1.6"/><circle cx="360" cy="40" r="1.6"/><circle cx="400" cy="40" r="1.6"/><circle cx="440" cy="40" r="1.6"/><circle cx="480" cy="40" r="1.6"/><circle cx="520" cy="40" r="1.6"/><circle cx="560" cy="40" r="1.6"/><circle cx="40" cy="80" r="1.6"/><circle cx="80" cy="80" r="1.6"/><circle cx="120" cy="80" r="1.6"/><circle cx="160" cy="80" r="1.6"/><circle cx="200" cy="80" r="1.6"/><circle cx="240" cy="80" r="1.6"/><circle cx="280" cy="80" r="1.6"/><circle cx="320" cy="80" r="1.6"/><circle cx="360" cy="80" r="1.6"/><circle cx="400" cy="80" r="1.6"/><circle cx="440" cy="80" r="1.6"/><circle cx="480" cy="80" r="1.6"/><circle cx="520" cy="80" r="1.6"/><circle cx="560" cy="80" r="1.6"/><circle cx="40" cy="120" r="1.6"/><circle cx="80" cy="120" r="1.6"/><circle cx="120" cy="120" r="1.6"/><circle cx="160" cy="120" r="1.6"/><circle cx="200" cy="120" r="1.6"/><circle cx="240" cy="120" r="1.6"/><circle cx="280" cy="120" r="1.6"/><circle cx="320" cy="120" r="1.6"/><circle cx="360" cy="120" r="1.6"/><circle cx="400" cy="120" r="1.6"/><circle cx="440" cy="120" r="1.6"/><circle cx="480" cy="120" r="1.6"/><circle cx="520" cy="120" r="1.6"/><circle cx="560" cy="120" r="1.6"/><circle cx="40" cy="160" r="1.6"/><circle cx="80" cy="160" r="1.6"/><circle cx="120" cy="160" r="1.6"/><circle cx="160" cy="160" r="1.6"/><circle cx="200" cy="160" r="1.6"/><circle cx="240" cy="160" r="1.6"/><circle cx="280" cy="160" r="1.6"/><circle cx="320" cy="160" r="1.6"/><circle cx="360" cy="160" r="1.6"/><circle cx="400" cy="160" r="1.6"/><circle cx="440" cy="160" r="1.6"/><circle cx="480" cy="160" r="1.6"/><circle cx="520" cy="160" r="1.6"/><circle cx="560" cy="160" r="1.6"/><circle cx="40" cy="200" r="1.6"/><circle cx="80" cy="200" r="1.6"/><circle cx="120" cy="200" r="1.6"/><circle cx="160" cy="200" r="1.6"/><circle cx="200" cy="200" r="1.6"/><circle cx="240" cy="200" r="1.6"/><circle cx="280" cy="200" r="1.6"/><circle cx="320" cy="200" r="1.6"/><circle cx="360" cy="200" r="1.6"/><circle cx="400" cy="200" r="1.6"/><circle cx="440" cy="200" r="1.6"/><circle cx="480" cy="200" r="1.6"/><circle cx="520" cy="200" r="1.6"/><circle cx="560" cy="200" r="1.6"/><circle cx="40" cy="240" r="1.6"/><circle cx="80" cy="240" r="1.6"/><circle cx="120" cy="240" r="1.6"/><circle cx="160" cy="240" r="1.6"/><circle cx="200" cy="240" r="1.6"/><circle cx="240" cy="240" r="1.6"/><circle cx="280" cy="240" r="1.6"/><circle cx="320" cy="240" r="1.6"/><circle cx="360" cy="240" r="1.6"/><circle cx="400" cy="240" r="1.6"/><circle cx="440" cy="240" r="1.6"/><circle cx="480" cy="240" r="1.6"/><circle cx="520" cy="240" r="1.6"/><circle cx="560" cy="240" r="1.6"/><circle cx="40" cy="280" r="1.6"/><circle cx="80" cy="280" r="1.6"/><circle cx="120" cy="280" r="1.6"/><circle cx="160" cy="280" r="1.6"/><circle cx="200" cy="280" r="1.6"/><circle cx="240" cy="280" r="1.6"/><circle cx="280" cy="280" r="1.6"/><circle cx="320" cy="280" r="1.6"/><circle cx="360" cy="280" r="1.6"/><circle cx="400" cy="280" r="1.6"/><circle cx="440" cy="280" r="1.6"/><circle cx="480" cy="280" r="1.6"/><circle cx="520" cy="280" r="1.6"/><circle cx="560" cy="280" r="1.6"/><circle cx="40" cy="320" r="1.6"/><circle cx="80" cy="320" r="1.6"/><circle cx="120" cy="320" r="1.6"/><circle cx="160" cy="320" r="1.6"/><circle cx="200" cy="320" r="1.6"/><circle cx="240" cy="320" r="1.6"/><circle cx="280" cy="320" r="1.6"/><circle cx="320" cy="320" r="1.6"/><circle cx="360" cy="320" r="1.6"/><circle cx="400" cy="320" r="1.6"/><circle cx="440" cy="320" r="1.6"/><circle cx="480" cy="320" r="1.6"/><circle cx="520" cy="320" r="1.6"/><circle cx="560" cy="320" r="1.6"/><circle cx="40" cy="360" r="1.6"/><circle cx="80" cy="360" r="1.6"/><circle cx="120" cy="360" r="1.6"/><circle cx="160" cy="360" r="1.6"/><circle cx="200" cy="360" r="1.6"/><circle cx="240" cy="360" r="1.6"/><circle cx="280" cy="360" r="1.6"/><circle cx="320" cy="360" r="1.6"/><circle cx="360" cy="360" r="1.6"/><circle cx="400" cy="360" r="1.6"/><circle cx="440" cy="360" r="1.6"/><circle cx="480" cy="360" r="1.6"/><circle cx="520" cy="360" r="1.6"/><circle cx="560" cy="360" r="1.6"/></g>
<ellipse cx="300" cy="195" rx="230" ry="150" fill="url(#glow)"/>
<rect x="196" y="96" width="208" height="208" rx="34" fill="url(#tile)" stroke="#ffffff" stroke-opacity="0.14" stroke-width="1.5"/>
<rect x="196" y="96" width="208" height="70" rx="34" fill="#ffffff" opacity="0.05"/>
<g fill="none" stroke="url(#gold)" stroke-width="6" stroke-linejoin="round" stroke-linecap="round"><polygon points="300.0,150.0 339.1,168.8 348.7,211.1 321.7,245.0 278.3,245.0 251.3,211.1 260.9,168.8"/><line x1="300" y1="200" x2="300.0" y2="166.0"/><line x1="300" y1="200" x2="326.6" y2="178.8"/><line x1="300" y1="200" x2="333.1" y2="207.6"/><line x1="300" y1="200" x2="314.8" y2="230.6"/><line x1="300" y1="200" x2="285.2" y2="230.6"/><line x1="300" y1="200" x2="266.9" y2="207.6"/><line x1="300" y1="200" x2="273.4" y2="178.8"/><polygon points="288,190 312,190 306,212 294,212" fill="url(#mint)" stroke="url(#mint)" stroke-width="4"/></g>
</svg>